# xmcd CD database file
#
# Track frame offsets:
#	150
#	13942
#	33892
#	48591
#	68247
#	85797
#	105891
#
# Disc length: 1705 seconds
#
# Revision: 0
# Processed by: cddbd v1.5.2PL0 Copyright (c) Steve Scherf et al.
# Submitted via: CdAid (MTCDDB.DLL V2003.12.21)
#
DISCID=4d06a707
DTITLE=Symphony Phillips - Blues and Bits
DYEAR=2008
DGENRE=Blues
TTITLE0=Four
TTITLE1=Someday
TTITLE2=Tenor Madness
TTITLE3=Blakes Blues
TTITLE4=Softly
TTITLE5=Blueprint
TTITLE6=Autumn Leaves
EXTD=Symphony Phillips with Blake Phillips ID3G:   0 YEAR: 2008
EXTT0=
EXTT1=
EXTT2=
EXTT3=
EXTT4=
EXTT5=
EXTT6=
PLAYORDER=
